<mxfile host="65bd71144e">
    <diagram id="DH1lE7k_KA2hm85Fb6-5" name="Page-1">
        <mxGraphModel dx="2306" dy="800" grid="1" gridSize="10" guides="1" tooltips="1" connect="1" arrows="1" fold="1" page="1" pageScale="1" pageWidth="850" pageHeight="1100" math="0" shadow="0">
            <root>
                <mxCell id="0"/>
                <mxCell id="1" parent="0"/>
                <mxCell id="11" style="edgeStyle=none;html=1;exitX=1;exitY=0.5;exitDx=0;exitDy=0;" edge="1" parent="1" source="3">
                    <mxGeometry relative="1" as="geometry">
                        <mxPoint x="50" y="470" as="targetPoint"/>
                    </mxGeometry>
                </mxCell>
                <mxCell id="3" value="Speler" style="swimlane;" vertex="1" parent="1">
                    <mxGeometry x="-230" y="355" width="200" height="230" as="geometry"/>
                </mxCell>
                <mxCell id="24" value="donkerBord" style="text;html=1;align=center;verticalAlign=middle;resizable=0;points=[];autosize=1;strokeColor=none;fillColor=none;" vertex="1" parent="3">
                    <mxGeometry y="45" width="90" height="30" as="geometry"/>
                </mxCell>
                <mxCell id="27" value="lichtBord&lt;br&gt;" style="text;html=1;align=center;verticalAlign=middle;resizable=0;points=[];autosize=1;strokeColor=none;fillColor=none;" vertex="1" parent="3">
                    <mxGeometry y="65" width="70" height="30" as="geometry"/>
                </mxCell>
                <mxCell id="29" value="forfeit()" style="text;html=1;align=center;verticalAlign=middle;resizable=0;points=[];autosize=1;strokeColor=none;fillColor=none;" vertex="1" parent="3">
                    <mxGeometry x="5" y="165" width="60" height="30" as="geometry"/>
                </mxCell>
                <mxCell id="12" style="edgeStyle=none;html=1;exitX=0.5;exitY=1;exitDx=0;exitDy=0;" edge="1" parent="1" source="4">
                    <mxGeometry relative="1" as="geometry">
                        <mxPoint x="150" y="350" as="targetPoint"/>
                    </mxGeometry>
                </mxCell>
                <mxCell id="23" style="edgeStyle=none;html=1;exitX=0;exitY=1;exitDx=0;exitDy=0;entryX=1;entryY=0;entryDx=0;entryDy=0;" edge="1" parent="1" source="4" target="3">
                    <mxGeometry relative="1" as="geometry"/>
                </mxCell>
                <mxCell id="4" value="Bord" style="swimlane;" vertex="1" parent="1">
                    <mxGeometry x="50" y="60" width="200" height="200" as="geometry"/>
                </mxCell>
                <mxCell id="7" value="stenen" style="text;html=1;align=center;verticalAlign=middle;resizable=0;points=[];autosize=1;strokeColor=none;fillColor=none;" vertex="1" parent="4">
                    <mxGeometry x="5" y="40" width="60" height="30" as="geometry"/>
                </mxCell>
                <mxCell id="13" style="edgeStyle=none;html=1;exitX=0;exitY=0.5;exitDx=0;exitDy=0;entryX=1;entryY=0.5;entryDx=0;entryDy=0;" edge="1" parent="1" source="5" target="4">
                    <mxGeometry relative="1" as="geometry"/>
                </mxCell>
                <mxCell id="5" value="Steen" style="swimlane;" vertex="1" parent="1">
                    <mxGeometry x="325" y="60" width="200" height="200" as="geometry"/>
                </mxCell>
                <mxCell id="36" value="maakSteen()" style="text;html=1;align=center;verticalAlign=middle;resizable=0;points=[];autosize=1;strokeColor=none;fillColor=none;" vertex="1" parent="5">
                    <mxGeometry x="-5" y="110" width="90" height="30" as="geometry"/>
                </mxCell>
                <mxCell id="37" value="resetStenen()" style="text;html=1;align=center;verticalAlign=middle;resizable=0;points=[];autosize=1;strokeColor=none;fillColor=none;" vertex="1" parent="5">
                    <mxGeometry x="-5" y="140" width="100" height="30" as="geometry"/>
                </mxCell>
                <mxCell id="10" style="edgeStyle=none;html=1;exitX=0.5;exitY=1;exitDx=0;exitDy=0;entryX=0.5;entryY=0;entryDx=0;entryDy=0;" edge="1" parent="1" source="6" target="3">
                    <mxGeometry relative="1" as="geometry"/>
                </mxCell>
                <mxCell id="6" value="Zet" style="swimlane;" vertex="1" parent="1">
                    <mxGeometry x="-230" y="50" width="200" height="200" as="geometry"/>
                </mxCell>
                <mxCell id="30" value="aggresief" style="text;html=1;align=center;verticalAlign=middle;resizable=0;points=[];autosize=1;strokeColor=none;fillColor=none;" vertex="1" parent="6">
                    <mxGeometry x="5" y="40" width="70" height="30" as="geometry"/>
                </mxCell>
                <mxCell id="31" value="passief" style="text;html=1;align=center;verticalAlign=middle;resizable=0;points=[];autosize=1;strokeColor=none;fillColor=none;" vertex="1" parent="6">
                    <mxGeometry x="10" y="70" width="60" height="30" as="geometry"/>
                </mxCell>
                <mxCell id="8" value="Spel" style="swimlane;" vertex="1" parent="1">
                    <mxGeometry x="50" y="350" width="200" height="340" as="geometry"/>
                </mxCell>
                <mxCell id="14" value="Borden" style="text;html=1;align=center;verticalAlign=middle;resizable=0;points=[];autosize=1;strokeColor=none;fillColor=none;" vertex="1" parent="8">
                    <mxGeometry x="10" y="50" width="60" height="30" as="geometry"/>
                </mxCell>
                <mxCell id="16" value="Spelers&lt;br&gt;" style="text;html=1;align=center;verticalAlign=middle;resizable=0;points=[];autosize=1;strokeColor=none;fillColor=none;" vertex="1" parent="8">
                    <mxGeometry x="10" y="70" width="60" height="30" as="geometry"/>
                </mxCell>
                <mxCell id="17" value="Score&lt;br&gt;" style="text;html=1;align=center;verticalAlign=middle;resizable=0;points=[];autosize=1;strokeColor=none;fillColor=none;" vertex="1" parent="8">
                    <mxGeometry x="10" y="90" width="50" height="30" as="geometry"/>
                </mxCell>
                <mxCell id="18" value="aantalZetten&lt;br&gt;" style="text;html=1;align=center;verticalAlign=middle;resizable=0;points=[];autosize=1;strokeColor=none;fillColor=none;" vertex="1" parent="8">
                    <mxGeometry x="10" y="110" width="90" height="30" as="geometry"/>
                </mxCell>
                <mxCell id="19" value="startSpel()&lt;br&gt;" style="text;html=1;align=center;verticalAlign=middle;resizable=0;points=[];autosize=1;strokeColor=none;fillColor=none;" vertex="1" parent="8">
                    <mxGeometry x="10" y="215" width="80" height="30" as="geometry"/>
                </mxCell>
                <mxCell id="20" value="resetSpel()" style="text;html=1;align=center;verticalAlign=middle;resizable=0;points=[];autosize=1;strokeColor=none;fillColor=none;" vertex="1" parent="8">
                    <mxGeometry x="10" y="230" width="80" height="30" as="geometry"/>
                </mxCell>
                <mxCell id="21" value="maakSpeler()" style="text;html=1;align=center;verticalAlign=middle;resizable=0;points=[];autosize=1;strokeColor=none;fillColor=none;" vertex="1" parent="8">
                    <mxGeometry x="5" y="245" width="100" height="30" as="geometry"/>
                </mxCell>
                <mxCell id="28" value="maakZet()" style="text;html=1;align=center;verticalAlign=middle;resizable=0;points=[];autosize=1;strokeColor=none;fillColor=none;" vertex="1" parent="1">
                    <mxGeometry x="-230" y="505" width="80" height="30" as="geometry"/>
                </mxCell>
                <mxCell id="32" value="maakBord()&lt;br&gt;" style="text;html=1;align=center;verticalAlign=middle;resizable=0;points=[];autosize=1;strokeColor=none;fillColor=none;" vertex="1" parent="1">
                    <mxGeometry x="45" y="185" width="90" height="30" as="geometry"/>
                </mxCell>
                <mxCell id="33" value="resetBord()" style="text;html=1;align=center;verticalAlign=middle;resizable=0;points=[];autosize=1;strokeColor=none;fillColor=none;" vertex="1" parent="1">
                    <mxGeometry x="55" y="200" width="80" height="30" as="geometry"/>
                </mxCell>
                <mxCell id="34" value="donkereStenen" style="text;html=1;align=center;verticalAlign=middle;resizable=0;points=[];autosize=1;strokeColor=none;fillColor=none;" vertex="1" parent="1">
                    <mxGeometry x="320" y="105" width="100" height="30" as="geometry"/>
                </mxCell>
                <mxCell id="35" value="lichteStenen" style="text;html=1;align=center;verticalAlign=middle;resizable=0;points=[];autosize=1;strokeColor=none;fillColor=none;" vertex="1" parent="1">
                    <mxGeometry x="320" y="130" width="90" height="30" as="geometry"/>
                </mxCell>
            </root>
        </mxGraphModel>
    </diagram>
</mxfile>